<?xml version="1.0" encoding="utf-8"?>
<!-- Generator: Adobe Illustrator 24.1.2, SVG Export Plug-In . SVG Version: 6.00 Build 0)  -->
<svg version="1.1" id="Layer_1" xmlns="http://www.w3.org/2000/svg" xmlns:xlink="http://www.w3.org/1999/xlink" x="0px" y="0px"
	 viewBox="0 0 50 50" style="enable-background:new 0 0 50 50;" xml:space="preserve">
<style type="text/css">
	.st0{fill:#CECCCC;}
</style>
<path class="st0" d="M47.2,21.2l-5.9-1c-0.3-1.2-0.8-2.3-1.4-3.4l3.5-4.9c0.3-0.4,0.2-0.9-0.1-1.3l-3.9-3.9
	c-0.3-0.3-0.9-0.4-1.3-0.1l-4.8,3.5c-1.1-0.6-2.2-1.1-3.4-1.4l-1-5.9c-0.1-0.5-0.5-0.8-1-0.8h-5.5c-0.5,0-0.9,0.4-1,0.8l-1,5.9
	c-1.2,0.3-2.4,0.8-3.4,1.4L12,6.7c-0.4-0.3-0.9-0.2-1.3,0.1l-3.9,3.9c-0.3,0.3-0.4,0.9-0.1,1.3l3.4,4.9C9.5,17.9,9,19,8.7,20.3
	l-5.8,1c-0.5,0.1-0.8,0.5-0.8,1v5.5c0,0.5,0.3,0.9,0.8,1l5.8,1c0.3,1.2,0.8,2.4,1.4,3.5L6.7,38c-0.3,0.4-0.2,0.9,0.1,1.3l3.9,3.9
	c0.3,0.3,0.9,0.4,1.3,0.1l4.9-3.4c1.1,0.6,2.2,1.1,3.4,1.4l1,5.9c0.1,0.5,0.5,0.8,1,0.8h5.5c0.5,0,0.9-0.3,1-0.8l1-5.9
	c1.2-0.4,2.3-0.8,3.4-1.4l4.9,3.4c0.4,0.3,0.9,0.2,1.3-0.1l3.9-3.9c0.3-0.3,0.4-0.9,0.1-1.3l-3.5-4.9c0.6-1.1,1.1-2.2,1.4-3.4l5.9-1
	c0.5-0.1,0.8-0.5,0.8-1v-5.5C48,21.7,47.6,21.3,47.2,21.2z M25,32c-3.9,0-7-3.1-7-7s3.1-7,7-7s7,3.1,7,7S28.9,32,25,32z"/>
</svg>
