<?xml version="1.0" encoding="UTF-8"?>
<svg id="Layer_1" data-name="Layer 1" xmlns="http://www.w3.org/2000/svg" viewBox="0 0 512 512">
  <defs>
    <style>
      .cls-1 {
        fill: #00aeef;
      }

      .cls-2 {
        fill: none;
      }
    </style>
  </defs>
  <path class="cls-2" d="M193.56,441.8c-24.6-.21-49.21-.92-73.79-.29-19.42,.5-32.2,17.23-26.59,37.03,96,1.3,192.9,2.6,289.76,3.91,1.73-12.83,3.22-23.89,5.02-37.22-5.7-.71-10.39-1.75-15.09-1.8-59.77-.63-119.54-1.14-179.31-1.64Z"/>
  <g>
    <path class="cls-1" d="M227.75,220.92c0,4.34,8.08,6.51,24.23,6.51,17.46,0,31.2-5.8,41.19-17.42,9.39-11,14.08-25.49,14.08-43.46s-5.1-30.99-15.3-41.8c-10.3-11.21-23.93-16.81-40.89-16.81-15.55,0-23.32,2.07-23.32,6.21,0,5.96-.1,14.92-.3,26.88-.2,11.96-.3,20.92-.3,26.88s.1,14.67,.3,26.43c.2,11.76,.3,20.62,.3,26.58Z"/>
    <path class="cls-1" d="M439.18,443.82c14.76-1.3,18.31-5.73,18.16-20.33-.64-60.16-1.32-120.32-1.99-180.48-.82-73.39-1.56-146.79-2.56-220.18C452.52,3.61,448.07-.11,428.75,.04c-99.48,.79-198.97,1.53-298.45,2.24-38.93,.28-64.39,22.01-67,61-2.57,38.46-2.28,77.12-3.03,115.7-1.86,95.34-3.68,190.67-5.31,286.02-.46,26.79,15.25,42.7,41.84,43.1,65.82,.98,131.65,1.96,197.48,2.77,43.88,.54,87.77,.79,131.66,1.18,8.97,.08,16.16-3.11,17.03-12.82,.93-10.42-6.07-14.56-15.39-16.03-3.95-.63-7.8-1.93-11.19-2.8-8.76-19.99,7.69-35.23,22.8-36.56ZM169.52,118.17c-.86-23.17-1.29-40.51-1.29-52.02,0-2.12,1.46-3.38,4.39-3.79,7.17-.81,18.93-1.21,35.29-1.21,31.09,0,51.24,.45,60.42,1.36,23.93,2.42,42.65,8.48,56.18,18.17,12.72,9.09,22.77,21.81,30.14,38.16,7.07,15.45,10.6,31.35,10.6,47.7,0,29.68-9.54,55.43-28.62,77.23-16.86,19.49-40.54,29.73-71.02,30.74-5.86,.2-21.96,.3-48.31,.3-4.95,0-12.39-.15-22.34-.45-9.95-.3-17.39-.45-22.34-.45-2.93,0-4.39-1.16-4.39-3.48,0-11.1,.43-27.79,1.29-50.05,.86-22.26,1.29-38.94,1.29-50.05s-.43-29-1.29-52.17Zm213.42,364.29c-96.85-1.31-193.76-2.61-289.76-3.91-5.6-19.8,7.18-36.53,26.59-37.03,24.58-.63,49.19,.08,73.79,.29,59.77,.5,119.54,1.01,179.31,1.64,4.7,.05,9.39,1.09,15.09,1.8-1.8,13.32-3.29,24.39-5.02,37.22Z"/>
  </g>
</svg>