<?xml version="1.0" encoding="UTF-8"?>
<svg xmlns="http://www.w3.org/2000/svg" version="1.1" viewBox="0 0 12.5 13.8">
  <defs>
    <style>
      .cls-1 {
        fill: #d3d3d3;
      }

      .cls-2 {
        fill: #939598;
      }
    </style>
  </defs>
  <!-- Generator: Adobe Illustrator 28.6.0, SVG Export Plug-In . SVG Version: 1.2.0 Build 709)  -->
  <g>
    <g id="Layer_1">
      <g id="Layer_1-2" data-name="Layer_1">
        <path class="cls-2" d="M1.3.1c0,1.1.4,2.3,1.1,3.1.8,1,1.8,1.8,2.9,2.4,1.3.8,2.6,1.6,3.8,2.5,1.2.9,1.6,1.3,2.2,2.1.7.9,1.1,2.1,1.2,3.3v.4h-1.2v-.9c-.1-.3-.2-.4-.5-.4H2.2l.5-1c0-.2.3-.3.4-.2h7.5l-.9-1c-.1-.2-.3-.2-.5-.2h-5.1v-.2l1.4-1c.2-.1.3-.1.5-.1h2c-.6-.4-1.1-.7-1.6-1h-.4c-.6.4-1.2.8-1.8,1.2-.8.5-1.4,1.2-2,1.9-.7.8-1,1.9-1,2.9H0c.1-.7.2-1.3.4-2,.5-1.4,1.4-2.6,2.6-3.4.7-.5,1.3-1,2-1.4l-.3-.2c-.9-.7-1.8-1.3-2.6-2C.8,3.6,0,1.9,0,.1h1.3Z"/>
        <path class="cls-1" d="M2.2.1h10.3s-.6,3.1-2.1,4.3-2.7,2.1-2.7,2.1c0,0-3.5-2.5-4.7-4S2.2.1,2.2.1Z"/>
      </g>
    </g>
  </g>
</svg>