<?xml version="1.0" encoding="utf-8"?>
<!-- Generator: Adobe Illustrator 25.1.0, SVG Export Plug-In . SVG Version: 6.00 Build 0)  -->
<svg version="1.1" id="Layer_1" xmlns="http://www.w3.org/2000/svg" xmlns:xlink="http://www.w3.org/1999/xlink" x="0px" y="0px"
	 viewBox="0 0 12.5 13.7" style="enable-background:new 0 0 12.5 13.7;" xml:space="preserve">
<style type="text/css">
	.st0{fill:#58595B;}
</style>
<g>
	<path class="st0" d="M1.5,0.4c1-0.2,2.4-0.4,4-0.4c2,0,3.4,0.4,4.2,1s1.4,1.6,1.4,2.8c0,1.6-1.2,2.8-2.4,3.4l0,0
		c0.8,0.4,1.4,1.4,1.8,2.6c0.4,1.4,0.8,3.4,1.2,3.8H8.3c-0.2-0.4-0.4-1.4-0.8-3.2c-0.4-1.6-1-2.2-2.2-2.2H4.5v5.2h-3V0.4z M4.5,6
		h1.2c1.4,0,2.4-0.8,2.4-2S7.3,2.2,5.9,2.2c-0.6,0-1.2,0-1.4,0.2V6L4.5,6z"/>
</g>
</svg>
