<?xml version="1.0" encoding="utf-8"?>
<!-- Generator: Adobe Illustrator 25.0.0, SVG Export Plug-In . SVG Version: 6.00 Build 0)  -->
<svg version="1.1" id="Layer_1" xmlns="http://www.w3.org/2000/svg" xmlns:xlink="http://www.w3.org/1999/xlink" x="0px" y="0px"
	 viewBox="0 0 16 16" style="enable-background:new 0 0 16 16;" xml:space="preserve">
<style type="text/css">
	.st0{fill:#F6F6F6;fill-opacity:0;}
	.st1{fill:#EDEC81;}
	.st2{fill:#F0EFF1;}
</style>
<path id="canvas" class="st0" d="M16,16H0V0h16V16z"/>
<path id="outline" class="st0" d="M4,15c-1,0-2-0.7-2-2V3c0-1.3,1-2,2-2h6.1L14,4.6V13c0,1-0.7,2-2,2H4z"/>
<path id="iconBg" class="st1" d="M9.6,2H4c0,0-1,0-1,1c0,0.8,0,7.4,0,10c0,1,1,1,1,1s7,0,8,0s1-1,1-1V5L9.6,2z M12,13H4V3h5v3h3V13z
	"/>
<path id="iconFg" class="st2" d="M4,3h5v3h3v7H4V3z"/>
</svg>
