<?xml version="1.0" encoding="UTF-8" standalone="no"?>
<svg
   id="Layer_1"
   data-name="Layer 1"
   viewBox="0 0 487.57 507.95"
   version="1.1"
   sodipodi:docname="kbb.svg"
   inkscape:version="1.2.1 (9c6d41e410, 2022-07-14)"
   xmlns:inkscape="http://www.inkscape.org/namespaces/inkscape"
   xmlns:sodipodi="http://sodipodi.sourceforge.net/DTD/sodipodi-0.dtd"
   xmlns="http://www.w3.org/2000/svg"
   xmlns:svg="http://www.w3.org/2000/svg">
  <sodipodi:namedview
     id="namedview18"
     pagecolor="#ffffff"
     bordercolor="#000000"
     borderopacity="0.25"
     inkscape:showpageshadow="2"
     inkscape:pageopacity="0.0"
     inkscape:pagecheckerboard="0"
     inkscape:deskcolor="#d1d1d1"
     showgrid="false"
     inkscape:zoom="1.314123"
     inkscape:cx="538.00139"
     inkscape:cy="255.30335"
     inkscape:window-width="1920"
     inkscape:window-height="1111"
     inkscape:window-x="1266"
     inkscape:window-y="1341"
     inkscape:window-maximized="1"
     inkscape:current-layer="Layer_1" />
  <defs
     id="defs13">
    <style
       id="style11">
      .cls-1 {
        fill: #8dc63f;
      }
    </style>
  </defs>
  <path
     class="cls-1"
     d="M486.05,154.02C471.35,66.99,382.17,22.06,318.78,6.64S184.91,2.11,133.46,44.72s-43.27,141.43-43.27,141.43L0,333.9H99.93c.32,0,.61,72.52,.61,72.52,0,0-8.52,46.89,12.79,47.14,21.31,.25,92.46,3.63,92.46,3.63l2.76,50.77,196.6-.91-.92-174.05s96.52-91.95,81.83-178.98ZM157.34,245.24c-16.38,0-29.66-13.28-29.66-29.66s13.28-29.66,29.66-29.66,29.66,13.28,29.66,29.66-13.28,29.66-29.66,29.66Z"
     id="path15" />
  <path
     class="cls-1"
     d="M486.05,154.02C471.35,66.99,382.17,22.06,318.78,6.64S184.91,2.11,133.46,44.72s-43.27,141.43-43.27,141.43L0,333.9H99.93c.32,0,.61,72.52,.61,72.52,0,0-8.52,46.89,12.79,47.14,21.31,.25,92.46,3.63,92.46,3.63l2.76,50.77,196.6-.91-.92-174.05s96.52-91.95,81.83-178.98ZM157.34,245.24c-16.38,0-29.66-13.28-29.66-29.66s13.28-29.66,29.66-29.66,29.66,13.28,29.66,29.66-13.28,29.66-29.66,29.66Z"
     id="path225" />
  <path
     class="cls-1"
     d="M486.05,154.02C471.35,66.99,382.17,22.06,318.78,6.64S184.91,2.11,133.46,44.72s-43.27,141.43-43.27,141.43L0,333.9H99.93c.32,0,.61,72.52,.61,72.52,0,0-8.52,46.89,12.79,47.14,21.31,.25,92.46,3.63,92.46,3.63l2.76,50.77,196.6-.91-.92-174.05s96.52-91.95,81.83-178.98ZM157.34,245.24c-16.38,0-29.66-13.28-29.66-29.66s13.28-29.66,29.66-29.66,29.66,13.28,29.66,29.66-13.28,29.66-29.66,29.66Z"
     id="path227" />
  <path
     class="cls-1"
     d="M486.05,154.02C471.35,66.99,382.17,22.06,318.78,6.64S184.91,2.11,133.46,44.72s-43.27,141.43-43.27,141.43L0,333.9H99.93c.32,0,.61,72.52,.61,72.52,0,0-8.52,46.89,12.79,47.14,21.31,.25,92.46,3.63,92.46,3.63l2.76,50.77,196.6-.91-.92-174.05s96.52-91.95,81.83-178.98ZM157.34,245.24c-16.38,0-29.66-13.28-29.66-29.66s13.28-29.66,29.66-29.66,29.66,13.28,29.66,29.66-13.28,29.66-29.66,29.66Z"
     id="path229" />
  <path
     class="cls-1"
     d="M486.05,154.02C471.35,66.99,382.17,22.06,318.78,6.64S184.91,2.11,133.46,44.72s-43.27,141.43-43.27,141.43L0,333.9H99.93c.32,0,.61,72.52,.61,72.52,0,0-8.52,46.89,12.79,47.14,21.31,.25,92.46,3.63,92.46,3.63l2.76,50.77,196.6-.91-.92-174.05s96.52-91.95,81.83-178.98ZM157.34,245.24c-16.38,0-29.66-13.28-29.66-29.66s13.28-29.66,29.66-29.66,29.66,13.28,29.66,29.66-13.28,29.66-29.66,29.66Z"
     id="path231" />
  <path
     class="cls-1"
     d="M486.05,154.02C471.35,66.99,382.17,22.06,318.78,6.64S184.91,2.11,133.46,44.72s-43.27,141.43-43.27,141.43L0,333.9H99.93c.32,0,.61,72.52,.61,72.52,0,0-8.52,46.89,12.79,47.14,21.31,.25,92.46,3.63,92.46,3.63l2.76,50.77,196.6-.91-.92-174.05s96.52-91.95,81.83-178.98ZM157.34,245.24c-16.38,0-29.66-13.28-29.66-29.66s13.28-29.66,29.66-29.66,29.66,13.28,29.66,29.66-13.28,29.66-29.66,29.66Z"
     id="path233" />
  <path
     class="cls-1"
     d="M486.05,154.02C471.35,66.99,382.17,22.06,318.78,6.64S184.91,2.11,133.46,44.72s-43.27,141.43-43.27,141.43L0,333.9H99.93c.32,0,.61,72.52,.61,72.52,0,0-8.52,46.89,12.79,47.14,21.31,.25,92.46,3.63,92.46,3.63l2.76,50.77,196.6-.91-.92-174.05s96.52-91.95,81.83-178.98ZM157.34,245.24c-16.38,0-29.66-13.28-29.66-29.66s13.28-29.66,29.66-29.66,29.66,13.28,29.66,29.66-13.28,29.66-29.66,29.66Z"
     id="path235"
     style="fill:#ffe680" />
</svg>
