<?xml version="1.0" encoding="UTF-8" standalone="no"?>
<svg
   id="Layer_1"
   data-name="Layer 1"
   viewBox="0 0 16 16"
   version="1.1"
   sodipodi:docname="manifest.svg"
   inkscape:version="1.2.1 (9c6d41e410, 2022-07-14)"
   xml:space="preserve"
   xmlns:inkscape="http://www.inkscape.org/namespaces/inkscape"
   xmlns:sodipodi="http://sodipodi.sourceforge.net/DTD/sodipodi-0.dtd"
   xmlns="http://www.w3.org/2000/svg"
   xmlns:svg="http://www.w3.org/2000/svg"><sodipodi:namedview
     id="namedview198"
     pagecolor="#ffffff"
     bordercolor="#000000"
     borderopacity="0.25"
     inkscape:showpageshadow="2"
     inkscape:pageopacity="0.0"
     inkscape:pagecheckerboard="0"
     inkscape:deskcolor="#d1d1d1"
     showgrid="false"
     inkscape:zoom="11.281137"
     inkscape:cx="19.457258"
     inkscape:cy="7.4903796"
     inkscape:window-width="1920"
     inkscape:window-height="1111"
     inkscape:window-x="1266"
     inkscape:window-y="1341"
     inkscape:window-maximized="1"
     inkscape:current-layer="Layer_1"
     showguides="false" /><defs
     id="defs193"><style
       id="style191">.cls-1{fill:#eeec82;}</style></defs><g
     id="g9590"
     transform="matrix(0.51737514,0,0,0.51737514,-10.734471,3.7511261)"
     style="fill:#00ff00"><path
       style="fill:#00ff00;stroke-width:0.121321"
       d="m 24.605586,20.302237 c -0.700503,-0.256986 -1.365272,-0.84394 -1.680321,-1.483629 -0.239406,-0.4861 -0.282176,-0.758788 -0.280261,-1.786852 0.0018,-0.941175 0.0524,-1.30842 0.225894,-1.637831 0.311018,-0.590544 0.896567,-1.186636 1.470338,-1.496812 l 0.485284,-0.262341 11.213768,-0.0328 c 12.440462,-0.03639 11.864365,-0.07056 12.836431,0.761489 0.761719,0.652003 1.002557,1.29361 1.002557,2.67087 0,1.724716 -0.458322,2.549426 -1.759152,3.16544 L 47.51352,20.48703 36.291341,20.47963 C 26.98045,20.47353 24.990208,20.44334 24.605586,20.302235 Z m 2.697676,-2.173249 c 0.415004,-0.214607 0.754347,-0.880198 0.655843,-1.286378 -0.131422,-0.541916 -0.63956,-0.963402 -1.161465,-0.963402 -0.603562,0 -0.89001,0.158228 -1.131356,0.62494 -0.544852,1.053628 0.580852,2.170984 1.636978,1.62484 z M 24.593731,11.632549 C 23.369652,11.151927 22.714593,10.189829 22.614203,8.725176 22.496292,7.004893 23.061879,5.88516 24.374141,5.240896 l 0.69502,-0.3412252 H 36.17002 c 10.597753,0 11.12782,0.0104 11.695766,0.2294622 0.745839,0.287677 1.499181,0.958064 1.787147,1.590351 0.164742,0.361724 0.221693,0.786794 0.223679,1.669484 0.0039,1.719754 -0.40027,2.468573 -1.695828,3.142149 l -0.545943,0.283843 -11.22218,0.02595 c -10.835517,0.02505 -11.24274,0.01788 -11.81893,-0.208359 z M 27.532533,9.268551 C 27.963512,8.905906 28.076697,8.433707 27.858067,7.91045 27.695273,7.52083 27.14641,7.143723 26.743348,7.14456 c -0.360906,7.28e-4 -1.004393,0.462525 -1.140609,0.818518 -0.166106,0.434108 0.04363,1.166648 0.406878,1.421075 0.412102,0.288647 1.105001,0.23605 1.522916,-0.115602 z M 25.069161,3.1480024 C 23.958104,2.8763162 23.068781,2.0587573 22.76058,1.0257138 c -0.603775,-2.02376692 0.303508,-4.1018919 2.012396,-4.6093769 0.944096,-0.280367 21.93942,-0.289838 22.880651,-0.01032 0.886076,0.263136 1.533504,0.782998 1.905958,1.530416 0.278673,0.559224 0.319691,0.791085 0.319691,1.80710398 0,1.0089195 -0.04196,1.2497596 -0.312175,1.79202192 C 49.379336,1.9123541 49.053358,2.310248 48.749146,2.533968 47.729003,3.2841898 48.098604,3.2630523 36.238991,3.2494227 30.295763,3.2425927 25.269341,3.1969547 25.069161,3.1480044 Z m 2.351578,-2.38909652 c 0.155348,-0.1088102 0.359309,-0.3817822 0.453246,-0.606604 0.146844,-0.351449 0.146844,-0.466086 0,-0.817535 -0.357939,-0.85666798 -1.236741,-1.06389998 -1.920576,-0.45289398 -0.325597,0.29092098 -0.39345,0.43951998 -0.39345,0.86166198 0,0.422142 0.06785,0.57074 0.39345,0.861661 0.452183,0.40402522 1.024378,0.46396542 1.46733,0.15371 z"
       id="path9587"
       sodipodi:nodetypes="ssccscssssccsssssssssscssscscssssscsssssssssssssssssssss" /></g></svg>
