<svg id="Layer_1" data-name="Layer 1" xmlns="http://www.w3.org/2000/svg" viewBox="0 0 16 16"><defs><style>.cls-1{fill:#eeec82;}</style></defs><path class="cls-1" d="M2.2,8.12c-.12-.29-.24-.61-.37-1L1.75,9.71l0,2.15H.19l.08-1.13L.42,6.9l0-1.54V4.52h2L4.08,8.69l.23.62c0-.61.05-1.45.08-2.54s.05-1.83.05-2.25H6l-.09,1.6-.18,4.45,0,1.29H3.72c-.13-.36-.23-.61-.29-.77L2.78,9.56C2.57,9.06,2.37,8.58,2.2,8.12Zm8.51,3.74.09-1.63c-.35,0-.86,0-1.53,0l-.87,0,0-.74.11-3,.1-1.95H6.92c0,.61,0,1.4,0,2.36s-.07,1.93-.13,2.91c0,.53-.07,1.22-.13,2.07h4.09Zm5-5.93a2.35,2.35,0,0,0-.19-.6,1.74,1.74,0,0,0-.33-.46,1.38,1.38,0,0,0-.45-.29A2.44,2.44,0,0,0,14,4.49l-.87,0-.81,0-.82,0c0,.35,0,.6,0,.76s0,.41,0,.61l0,1.9-.1,2.69-.07,1.38h1.56v-.7c0-.31,0-1.24.05-2.78,0-.84,0-1.61.08-2.3l.32,0h.29a1,1,0,0,1,.25,0,.45.45,0,0,1,.21.12.58.58,0,0,1,.13.23,1.15,1.15,0,0,1,0,.33,1.05,1.05,0,0,1-.19.64.67.67,0,0,1-.58.26,1.34,1.34,0,0,1-.35,0c0,.16.08.4.14.72s.09.58.11.74a2.5,2.5,0,0,0,.49.07,1.84,1.84,0,0,0,1-.3,1.93,1.93,0,0,0,.7-.89,3.34,3.34,0,0,0,.25-1.32A3.08,3.08,0,0,0,15.74,5.93Z"/></svg>