<?xml version="1.0" encoding="UTF-8" standalone="no"?>
<svg
   width="16"
   height="16"
   viewBox="0 0 16 16"
   fill="none"
   version="1.1"
   id="svg443"
   sodipodi:docname="update.svg"
   inkscape:version="1.2.1 (9c6d41e410, 2022-07-14)"
   xml:space="preserve"
   xmlns:inkscape="http://www.inkscape.org/namespaces/inkscape"
   xmlns:sodipodi="http://sodipodi.sourceforge.net/DTD/sodipodi-0.dtd"
   xmlns="http://www.w3.org/2000/svg"
   xmlns:svg="http://www.w3.org/2000/svg"><defs
     id="defs447" /><sodipodi:namedview
     id="namedview445"
     pagecolor="#ffffff"
     bordercolor="#000000"
     borderopacity="0.25"
     inkscape:showpageshadow="2"
     inkscape:pageopacity="0.0"
     inkscape:pagecheckerboard="0"
     inkscape:deskcolor="#d1d1d1"
     showgrid="false"
     inkscape:zoom="44.40625"
     inkscape:cx="8.5460943"
     inkscape:cy="7.2624912"
     inkscape:window-width="1920"
     inkscape:window-height="1111"
     inkscape:window-x="1266"
     inkscape:window-y="1341"
     inkscape:window-maximized="1"
     inkscape:current-layer="svg443" /><path
     style="fill:#2dd348;stroke-width:0.0715763;fill-opacity:1"
     d="M 7.0894277,15.389843 C 6.0873907,15.236459 5.1667162,14.925527 4.3445035,14.462821 3.7625455,14.13532 2.840491,13.42671 2.5866764,13.111908 l -0.1814406,-0.225037 -0.727617,0.704501 -0.72761708,0.7045 V 12.197367 10.098863 H 3.1080849 5.2661681 l -0.7381487,0.72347 -0.7381487,0.723471 0.2313562,0.255691 c 0.6156831,0.680444 1.7408515,1.335485 2.7355108,1.592536 0.715456,0.184895 2.0465,0.167291 2.794492,-0.03696 1.8242853,-0.49815 3.2402053,-1.836108 3.8588893,-3.6464128 0.169384,-0.4956288 0.193761,-0.6832991 0.199401,-1.5351041 l 0.0064,-0.9704443 0.952244,-6.49e-5 0.952243,-6.49e-5 0.04499,0.2646843 c 0.06573,0.386677 0.05397,1.0418039 -0.02882,1.6057516 -0.459391,3.1294021 -2.768522,5.5656611 -5.8920653,6.2164481 -0.650462,0.135524 -1.977422,0.186406 -2.555114,0.09798 z M 0.61878062,8.7112063 C 0.55695202,8.229994 0.62152492,7.319938 0.76434312,6.6597279 1.1321855,4.9592903 2.1454186,3.3961256 3.5390716,2.3790172 6.5570307,0.17646623 10.700883,0.42786591 13.361137,2.9749035 l 0.453694,0.4343855 0.71713,-0.6947361 0.717129,-0.694736 V 4.1183216 6.2168262 H 13.091007 10.932924 L 11.671072,5.4933558 12.409221,4.7698853 12.177865,4.5141938 C 11.561608,3.8331149 10.550546,3.2366744 9.5360957,2.9557746 8.7332117,2.7334575 7.4613577,2.7347548 6.6519687,2.9587165 5.6528391,3.2351808 4.9954488,3.6179268 4.2131624,4.3786394 3.4498135,5.1209367 3.0681218,5.7306883 2.7532135,6.7109036 2.6107937,7.1542139 2.5831463,7.3923091 2.5831463,8.1754902 V 9.1107081 H 1.6266284 0.67011072 Z"
     id="path310" /></svg>
