<?xml version="1.0" encoding="UTF-8" standalone="no"?>
<svg
   width="16"
   height="16"
   viewBox="0 0 16 16"
   fill="none"
   version="1.1"
   id="svg192"
   sodipodi:docname="video.svg"
   inkscape:version="1.2.1 (9c6d41e410, 2022-07-14)"
   xml:space="preserve"
   xmlns:inkscape="http://www.inkscape.org/namespaces/inkscape"
   xmlns:sodipodi="http://sodipodi.sourceforge.net/DTD/sodipodi-0.dtd"
   xmlns="http://www.w3.org/2000/svg"
   xmlns:svg="http://www.w3.org/2000/svg"><defs
     id="defs196" /><sodipodi:namedview
     id="namedview194"
     pagecolor="#ffffff"
     bordercolor="#000000"
     borderopacity="0.25"
     inkscape:showpageshadow="2"
     inkscape:pageopacity="0.0"
     inkscape:pagecheckerboard="0"
     inkscape:deskcolor="#d1d1d1"
     showgrid="false"
     inkscape:zoom="30.382064"
     inkscape:cx="9.5944765"
     inkscape:cy="12.095952"
     inkscape:window-width="1920"
     inkscape:window-height="1111"
     inkscape:window-x="1266"
     inkscape:window-y="1341"
     inkscape:window-maximized="1"
     inkscape:current-layer="svg192" /><path
     style="fill:#ff5555;stroke-width:0.0335881"
     d="M 1.7438038,14.521002 C 1.1561526,14.354876 0.70105802,13.890245 0.57025518,13.322862 0.55156646,13.241797 0.53590668,12.77956 0.53545463,12.295669 l -8.2078e-4,-0.879801 0.70465905,-0.01028 0.7046587,-0.01028 0.093057,-0.09313 0.093057,-0.09313 V 7.8818327 4.5546233 L 2.0203753,4.4566144 1.9106842,4.3586054 H 1.222659 0.53463373 L 0.53503242,3.4769189 C 0.53532796,2.8202862 0.54768165,2.5492051 0.58342488,2.4149123 0.74018293,1.8259499 1.2266622,1.3588473 1.8109798,1.2362516 1.9477415,1.207558 3.5918901,1.2001709 8.1423284,1.2078073 l 6.1466146,0.010315 0.186225,0.077592 c 0.403122,0.1679628 0.779871,0.5451508 0.944254,0.9453535 0.07235,0.1761398 0.07713,0.2385209 0.08829,1.1518816 l 0.0118,0.9656566 h -0.694221 -0.694219 l -0.114199,0.1141993 -0.1142,0.1141994 v 3.2944585 3.2944593 l 0.09794,0.10969 0.09794,0.109692 0.710076,0.0103 0.710076,0.0103 -0.01043,0.946961 c -0.0096,0.871545 -0.01616,0.962122 -0.08236,1.137333 -0.169393,0.448289 -0.531559,0.810502 -0.980199,0.980325 l -0.190372,0.07206 -6.1802029,0.0056 c -4.9134247,0.0044 -6.2111833,-0.0032 -6.3313485,-0.03716 z m 1.4778745,-1.530266 v -0.570997 h -0.570997 -0.570997 v 0.570997 0.570997 h 0.570997 0.570997 z m 2.6870445,0 v -0.570997 h -0.570997 -0.570997 v 0.570997 0.570997 h 0.570997 0.570997 z m 2.6870448,0 V 12.419739 H 8.0247703 7.4537737 v 0.570997 0.570997 h 0.5709966 0.5709973 z m 2.6870444,0 v -0.570997 h -0.570997 -0.570997 v 0.570997 0.570997 h 0.570997 0.570997 z m 2.687044,0 V 12.419739 H 13.39886 12.827863 v 0.570997 0.570997 h 0.570997 0.570996 z M 12.24771,11.30218 12.34084,11.20906 12.34974,7.8985194 12.35864,4.5879792 12.243914,4.4732901 12.129229,4.3586054 H 8.0247703 3.9203098 L 3.8061104,4.4728048 3.6919111,4.5870042 v 3.2904587 3.2904591 l 0.071815,0.0913 c 0.039498,0.05021 0.1037354,0.10429 0.1427493,0.120168 0.039014,0.01588 1.910798,0.02595 4.1595207,0.02239 l 4.0885879,-0.0065 z M 6.0120641,10.183148 5.9087228,10.096192 V 7.8853516 5.6745111 l 0.1033413,-0.086956 c 0.056837,-0.047826 0.1335455,-0.086956 0.1704618,-0.086956 0.1003195,0 4.3324421,2.1439918 4.4201281,2.2392356 0.08824,0.095843 0.09515,0.1698027 0.02519,0.2696827 -0.05755,0.082165 -4.3417602,2.2605856 -4.4458005,2.2605856 -0.036649,0 -0.1131384,-0.03913 -0.1699764,-0.08696 z M 3.2216783,2.7799668 v -0.570997 h -0.570997 -0.570997 v 0.570997 0.5709969 h 0.570997 0.570997 z m 2.6870445,0 v -0.570997 h -0.570997 -0.570997 v 0.570997 0.5709969 h 0.570997 0.570997 z m 2.6870448,0 V 2.2089698 H 8.0247703 7.4537737 v 0.570997 0.5709969 h 0.5709966 0.5709973 z m 2.6870444,0 v -0.570997 h -0.570997 -0.570997 v 0.570997 0.5709969 h 0.570997 0.570997 z m 2.687044,0 V 2.2089698 H 13.39886 12.827863 v 0.570997 0.5709969 h 0.570997 0.570996 z"
     id="path310" /></svg>
