<svg id="Layer_1" data-name="Layer 1" xmlns="http://www.w3.org/2000/svg" viewBox="0 0 256 256"><defs><style>.cls-1{fill:#a0dcf1;}</style></defs><path class="cls-1" d="M37.66,58.44q-2.79-5.73-5.75-12.61l-1.3,33.59L30,107.7c-5-.09-8.8-.14-11.42-.14q-3.33,0-12.46.14L7.32,92.82,9.68,42.38l.67-20.33V11q9.39.15,16.61.14,5.15,0,14.49-.14L67.29,66l3.56,8.08q.68-11.89,1.39-33.38T73,11q7.44.15,11.91.14,2.05,0,11.85-.14L95.27,32.11,92.54,90.77l-.36,16.93q-7.87-.14-14.72-.14-5.68,0-15.74.14-3.15-6.95-4.66-10.06L46.91,77.44Q41.89,67.51,37.66,58.44Zm134,49.26L173,86.31q-8.17.5-24.09.49-3.15,0-13.57-.21l.25-9.85,1.82-40.1L138.85,11q-8.06.15-12.34.14-6.35,0-14.58-.14,0,12.12-.63,31.14t-1.92,38.3q-.67,10.54-2.19,27.27,14.66-.14,34.14-.14Q155.73,107.56,171.65,107.7Zm79.17-78.18a27.82,27.82,0,0,0-3.09-7.9,23.17,23.17,0,0,0-5.2-6.06,20.81,20.81,0,0,0-7.06-3.79q-3.9-1.2-12-1.2-5.62,0-13.74.32t-12.78.31q-4.85,0-12.83-.21.06,6.94.06,10c0,2.69,0,5.39-.06,8.08l-.66,25.08-1.57,35.43-1.2,18.13q10.05-.14,12.6-.14l12.06.14V98.49q0-6.09.77-36.56.42-16.71,1.2-30.39l5.09-.43C214,31,215.47,31,216.93,31a20,20,0,0,1,4,.36,7.08,7.08,0,0,1,3.21,1.56A7,7,0,0,1,226.25,36a12.87,12.87,0,0,1,.66,4.28,12.36,12.36,0,0,1-3,8.4q-3,3.43-9.11,3.44a24.07,24.07,0,0,1-5.57-.64q.84,3.12,2.18,9.56t1.81,9.71a39.4,39.4,0,0,0,7.57.85,32.91,32.91,0,0,0,16-3.9,26.46,26.46,0,0,0,11.08-11.76,38.28,38.28,0,0,0,3.93-17.36A39.51,39.51,0,0,0,250.82,29.52ZM86.1,175.59l1.57-37.45q-3.58.17-9.15.16t-9.15-.16L67.8,175.59l-15-.08-16.26-.17q-.21,11.73-.9,20.42l14.61-.17L67,195.51,65.38,233q3.87-.24,9.15-.24t9.15.24q1.33-32.76,1.58-37.53l18.9.16,12.42.09q.28-11.73.91-20.42l-12.49.17Zm93.8,0,1.58-37.45q-3.6.17-9.16.16t-9.15-.16l-1.57,37.45-15-.08-16.25-.17q-.21,11.73-.91,20.42l14.61-.17,16.72-.08L159.18,233q3.88-.24,9.16-.24t9.15.24q1.32-32.76,1.57-37.53l18.91.16,12.41.09q.28-11.73.91-20.42l-12.49.17Z"/></svg>