<?xml version="1.0" encoding="utf-8"?>
<!-- Generator: Adobe Illustrator 25.4.1, SVG Export Plug-In . SVG Version: 6.00 Build 0)  -->
<svg version="1.1" id="Layer_1" xmlns="http://www.w3.org/2000/svg" xmlns:xlink="http://www.w3.org/1999/xlink" x="0px" y="0px"
	 viewBox="0 0 16 16" style="enable-background:new 0 0 16 16;" xml:space="preserve">
<g>
	<path d="M4.7,11.3c0.3,0.2,0.5,0.3,0.8,0.4c0.1,0.1,0.1,0.2,0.1,0.4c0,0.8,0,1.7,0,2.5c0,0.4,0.1,0.5,0.5,0.5c2.7,0,5.4,0,8.1,0
		c0.4,0,0.5-0.1,0.5-0.5c0-2.9,0-5.7,0-8.6c0-0.4-0.1-0.5-0.5-0.5c-2.7,0-5.4,0-8.1,0c-0.4,0-0.5,0.1-0.5,0.5c0,0.4,0,0.8,0,1.3
		c-0.5-0.5-1-0.8-0.9-1.5C4.8,5,5.2,4.5,6,4.5c1.8,0,3.5,0,5.3,0c1,0,2.1,0,3.1,0c0.8,0,1.3,0.4,1.3,1.3c0,2.9,0,5.9,0,8.8
		c0,0.9-0.4,1.3-1.3,1.3c-2.8,0-5.5,0-8.3,0c-0.8,0-1.3-0.5-1.3-1.3C4.7,13.6,4.7,12.4,4.7,11.3z"/>
	<path d="M8.7,9.1c0-0.5,0-0.9,0-1.3c0-0.2,0.1-0.4,0.3-0.5c0.1-0.1,0.4,0,0.5,0.1c0.9,0.8,1.7,1.7,2.6,2.5c0.3,0.2,0.3,0.5,0,0.8
		c-0.8,0.8-1.7,1.7-2.6,2.5c-0.1,0.1-0.4,0.2-0.6,0.1c-0.1,0-0.2-0.3-0.3-0.5c0-0.4,0-0.8,0-1.2c-0.5-0.1-0.9-0.1-1.4-0.2
		c-2.7-0.6-4.2-2.3-4.8-4.9C2.4,6.3,2.4,6,2.4,5.7c0-0.3,0-0.5,0.3-0.6C3,5,3.1,5.2,3.3,5.4c0.6,1.1,1.3,2.1,2.4,2.8
		C6.5,8.8,7.5,9.1,8.7,9.1z"/>
	<path d="M3.9,11.4c-0.9,0-1.8,0-2.7,0c-0.5,0-0.9-0.6-0.9-1.1c0-1.7,0-3.4,0-5.1c0-1.3,0-2.5,0-3.8c0-0.8,0.4-1.3,1.3-1.3
		c2.8,0,5.6,0,8.4,0c0.8,0,1.3,0.5,1.3,1.2c0,0.8,0,1.6,0,2.5c-0.3,0-0.6,0-0.9,0c0-0.8,0-1.5,0-2.3c0-0.5,0-0.5-0.5-0.5
		c-2.7,0-5.3,0-8,0C1.3,1,1.3,1,1.3,1.5c0,2.8,0,5.7,0,8.5c0,0.5,0,0.5,0.5,0.5c0.5,0,1.1,0,1.6,0c0.5,0,0.5,0,0.5,0.5
		C4,11.2,4,11.3,3.9,11.4z"/>
</g>
</svg>
