<?xml version="1.0" encoding="UTF-8" standalone="no"?>
<svg
   width="16"
   height="16"
   viewBox="0 0 16 16"
   fill="none"
   version="1.1"
   id="svg443"
   sodipodi:docname="clean.svg"
   inkscape:version="1.2.1 (9c6d41e410, 2022-07-14)"
   xml:space="preserve"
   xmlns:inkscape="http://www.inkscape.org/namespaces/inkscape"
   xmlns:sodipodi="http://sodipodi.sourceforge.net/DTD/sodipodi-0.dtd"
   xmlns="http://www.w3.org/2000/svg"
   xmlns:svg="http://www.w3.org/2000/svg"><defs
     id="defs447" /><sodipodi:namedview
     id="namedview445"
     pagecolor="#ffffff"
     bordercolor="#000000"
     borderopacity="0.25"
     inkscape:showpageshadow="2"
     inkscape:pageopacity="0.0"
     inkscape:pagecheckerboard="0"
     inkscape:deskcolor="#d1d1d1"
     showgrid="false"
     inkscape:zoom="32"
     inkscape:cx="13.890625"
     inkscape:cy="7.765625"
     inkscape:window-width="1920"
     inkscape:window-height="1111"
     inkscape:window-x="1266"
     inkscape:window-y="1341"
     inkscape:window-maximized="1"
     inkscape:current-layer="svg443" /><path
     style="fill:#241c1c;stroke-width:0.0218739"
     d="M 10.596871,15.628563 C 10.452027,15.560183 10.260083,15.471014 10.17033,15.430414 10.08058,15.389814 9.731531,15.22875 9.394672,15.072494 9.057813,14.916237 8.699076,14.749868 8.597479,14.702785 l -0.184723,-0.08561 0.1322,-0.136133 c 0.312969,-0.32228 0.966016,-1.090615 1.268397,-1.492317 0.259465,-0.344691 0.644953,-0.958224 0.617431,-0.982689 -0.0044,-0.0039 -0.0917,0.04157 -0.193965,0.101111 C 9.934588,12.283115 9.294088,12.598372 8.93507,12.747871 8.093336,13.09838 7.082079,13.376342 6.459833,13.428236 L 6.287252,13.442626 5.446709,12.928675 C 4.98441,12.646002 4.603339,12.406068 4.599883,12.395488 c -0.0035,-0.01058 0.09353,-0.07829 0.215521,-0.150479 0.121993,-0.07218 0.360634,-0.222428 0.530314,-0.333875 l 0.30851,-0.202631 -0.174991,0.0167 c -0.263439,0.02514 -1.404016,0.01646 -1.732571,-0.0132 L 3.457774,11.685943 2.795149,11.285137 C 2.430706,11.064693 1.866756,10.723954 1.541928,10.527939 0.46608102,9.878724 0.30380302,9.779153 0.31056302,9.772392 c 0.0037,-0.0037 0.109994,-0.01795 0.236239,-0.03169 C 1.373018,9.650742 2.339641,9.416058 3.182473,9.100795 4.684933,8.538798 6.047885,7.6880015 7.146121,6.6265642 l 0.268331,-0.25934 0.301081,0.1702925 c 0.165594,0.093661 0.557006,0.3144494 0.869803,0.4906409 0.312797,0.1761917 1.075651,0.6060257 1.69523,0.9551864 0.61958,0.349161 1.761399,0.991996 2.537377,1.428523 0.775978,0.436526 1.420711,0.802725 1.432741,0.813776 0.02707,0.02487 -0.05895,0.277731 -0.308101,0.905727 -0.631332,1.591287 -1.427918,2.920421 -2.382806,3.975803 -0.19582,0.216429 -0.656732,0.650637 -0.686968,0.647168 -0.0069,-7.94e-4 -0.131093,-0.05739 -0.275938,-0.125775 z M 14.327245,8.628048 C 14.14077,8.522291 13.225345,8.004063 12.292969,7.4764303 11.360592,6.9487979 10.459933,6.4390033 10.291503,6.3435533 10.123074,6.2481034 9.911444,6.1285938 9.821214,6.0779764 9.730984,6.027359 9.494745,5.8938585 9.296239,5.7813088 9.097733,5.6687588 8.803249,5.5021263 8.64183,5.4110143 8.48041,5.3199022 8.34482,5.234778 8.340519,5.2218494 8.336219,5.2089204 8.524044,4.9825256 8.757911,4.7187489 9.067135,4.3699789 9.220928,4.214042 9.321709,4.1470924 9.578253,3.9766695 9.770586,3.9191297 10.083701,3.9191297 c 0.345748,0 0.455017,0.039437 1.060585,0.3827834 0.204357,0.1158662 0.381536,0.2102842 0.393731,0.2098176 0.0193,-7.393e-4 0.414786,-0.5531013 2.167178,-3.0268265 0.749795,-1.0584307 0.757283,-1.0682093 0.884859,-1.1554148 0.316729,-0.2165044 0.710305,-0.1827044 1.008393,0.0866 0.175141,0.1582293 0.272281,0.476057 0.220003,0.7198204 -0.01291,0.060203 -0.46729,1.1268751 -1.00973,2.370383 -0.54244,1.2435078 -0.982142,2.2714673 -0.977115,2.2843543 0.005,0.012887 0.160435,0.1069119 0.345354,0.2089442 0.284559,0.1570113 0.363381,0.2124628 0.513038,0.3609199 0.291248,0.2889132 0.42034,0.620125 0.397541,1.0199746 -0.0093,0.1629296 -0.04128,0.2912928 -0.203665,0.8172731 -0.105954,0.343192 -0.198255,0.623668 -0.205113,0.62328 -0.0069,-3.88e-4 -0.16504,-0.08723 -0.351515,-0.1929909 z M 1.883681,7.2779337 C 1.16783,7.0853974 0.75466602,6.3100003 0.993259,5.6068495 1.132328,5.1970037 1.472078,4.8824414 1.891544,4.77516 2.582766,4.5983753 3.264067,4.9908915 3.468639,5.6837687 3.520159,5.8582731 3.520149,6.1852628 3.468617,6.3609265 3.33695,6.8096937 2.977931,7.1660717 2.544983,7.2777686 2.378207,7.3207946 2.043361,7.3208786 1.883692,7.2779435 Z M 0.69498202,4.03404 c -0.255628,-0.1032585 -0.410805,-0.3272128 -0.410805,-0.5928809 0,-0.1998906 0.04947,-0.3308844 0.172747,-0.4574512 0.272765,-0.280038 0.72561098,-0.2582078 0.96666998,0.0466 0.105082,0.13287 0.138995,0.2336215 0.13837,0.4110697 C 1.56114,3.6751021 1.435034,3.8819827 1.223066,3.9973502 1.070412,4.0804352 0.84807802,4.0958822 0.69498202,4.03404 Z"
     id="path3799" /></svg>
