<?xml version="1.0" encoding="utf-8"?>
<!-- Generator: Adobe Illustrator 25.1.0, SVG Export Plug-In . SVG Version: 6.00 Build 0)  -->
<svg version="1.1" id="Layer_1" xmlns="http://www.w3.org/2000/svg" xmlns:xlink="http://www.w3.org/1999/xlink" x="0px" y="0px"
	 viewBox="0 0 12.5 13.8" style="enable-background:new 0 0 12.5 13.8;" xml:space="preserve">
<style type="text/css">
	.st0{fill:#939598;}
</style>
<path class="st0" d="M1.3,0.1c0,1.1,0.4,2.3,1.1,3.1C3.2,4.2,4.2,5,5.3,5.6c1.3,0.8,2.6,1.6,3.8,2.5c0.8,0.6,1.6,1.3,2.2,2.1
	c0.7,0.9,1.1,2.1,1.2,3.3v0.4h-1.2L11.2,13c0-0.3-0.1-0.4-0.4-0.4H2.2l0.5-1c0.1-0.2,0.3-0.3,0.4-0.2h7.5l-0.9-1
	c-0.1-0.2-0.3-0.2-0.5-0.2H4.1V10l1.4-1C5.7,8.9,5.8,8.9,6,8.9h2c-0.6-0.4-1.1-0.7-1.6-1C6.3,7.8,6.1,7.8,6,7.8
	C5.4,8.2,4.8,8.6,4.2,9c-0.8,0.5-1.4,1.2-2,1.9c-0.7,0.8-1,1.9-1,2.9H0c0.1-0.7,0.2-1.3,0.4-2C0.9,10.4,1.8,9.2,3,8.4
	c0.7-0.5,1.3-1,2-1.4L4.7,6.8c-0.9-0.7-1.8-1.3-2.6-2C0.8,3.6,0,1.9,0,0.1H1.3z"/>
<path class="st0" d="M12.5,0.1c0,1.2-0.4,2.4-1.1,3.4c-0.6,0.8-1.2,1.5-2,2.1C9,5.9,8.6,6.2,8.2,6.5c-0.1,0.1-0.3,0.1-0.4,0
	C7.5,6.3,7.2,6.1,6.9,5.9L8,5.2V5.1H6.3c-0.4,0-0.7-0.1-1-0.3C4.9,4.5,4.5,4.2,4.1,3.9V3.8h5.2c0.2,0,0.4-0.1,0.5-0.2
	c0.3-0.3,0.5-0.6,0.8-1V2.5H3.2C3,2.6,2.8,2.5,2.7,2.3l-0.5-1h8.6c0.3,0,0.4-0.1,0.4-0.4c0-0.3,0-0.6,0.1-0.9L12.5,0.1z"/>
</svg>
