<?xml version="1.0" encoding="UTF-8"?>
<svg id="Layer_1" xmlns="http://www.w3.org/2000/svg" version="1.1" viewBox="0 0 12.5 13.7">
  <!-- Generator: Adobe Illustrator 29.6.1, SVG Export Plug-In . SVG Version: 2.1.1 Build 9)  -->
  <defs>
    <style>
      .st0 {
        fill: #ee2867;
      }
    </style>
  </defs>
  <path d="M1.3,0c0,1.1.4,2.3,1.1,3.1.8.9,1.8,1.7,2.9,2.4,1.2.8,2.5,1.6,3.8,2.5.8.6,1.6,1.3,2.2,2.1.7.9,1.1,2.1,1.2,3.3v.4h-1.2v-.9c-.1-.3-.2-.4-.5-.4H2.2l.5-1c0-.2.3-.3.4-.2h7.5l-.9-1c0-.2-.2-.3-.4-.3h-5.2c.5-.4,1-.8,1.4-1.1h2.5c-.6-.4-1.1-.7-1.6-1h-.3c-.7.4-1.3.8-1.9,1.2-.8.5-1.4,1.2-2,1.9-.7.8-1,1.9-1,2.9H0c.1-.7.2-1.3.4-2,.5-1.4,1.4-2.6,2.6-3.4.7-.5,1.3-1,2-1.4,0,0-.2-.2-.3-.2-.9-.7-1.8-1.3-2.6-2C.8,3.5,0,1.8,0,0h1.3Z"/>
  <path class="st0" d="M2.2,0h10.3s-.6,3.1-2.1,4.3-2.7,2.1-2.7,2.1c0,0-3.5-2.5-4.7-4s-.8-2.4-.8-2.4Z"/>
</svg>