<svg id="Layer_1" data-name="Layer 1" xmlns="http://www.w3.org/2000/svg" viewBox="0 0 12.51 13.73"><path d="M3,1.14A4.48,4.48,0,0,0,4.11,4.25,11.19,11.19,0,0,0,7,6.62c1.28.83,2.58,1.62,3.84,2.47A8.93,8.93,0,0,1,13,11.23a5.94,5.94,0,0,1,1.17,3.24c0,.13,0,.26,0,.39H13l-.06-.9c0-.27-.12-.37-.41-.37H3.93l.53-1a.43.43,0,0,1,.44-.24h7.48l-.85-1a.56.56,0,0,0-.5-.22H5.87l0-.08c.48-.34,1-.69,1.44-1a.85.85,0,0,1,.47-.13c.57,0,1.14,0,1.71,0l.29,0c-.59-.38-1.11-.71-1.64-1a.36.36,0,0,0-.32,0C7.19,9.23,6.57,9.62,6,10A8.23,8.23,0,0,0,4,12,4.37,4.37,0,0,0,3,14.86H1.75a15.25,15.25,0,0,1,.36-2A6.89,6.89,0,0,1,4.74,9.43c.65-.51,1.33-1,2-1.45a3.53,3.53,0,0,1-.32-.21c-.86-.66-1.77-1.27-2.57-2A6.21,6.21,0,0,1,1.75,1.14Z" transform="translate(-1.75 -1.14)"/><path d="M14.25,1.14a6.21,6.21,0,0,1-1.06,3.41,9.14,9.14,0,0,1-2,2.06c-.41.31-.83.59-1.24.89a.27.27,0,0,1-.37,0C9.28,7.31,9,7.15,8.64,7l1.07-.76V6.13c-.57,0-1.13,0-1.69,0a1.37,1.37,0,0,1-1-.29c-.39-.3-.8-.59-1.19-.88l0-.08H11a.56.56,0,0,0,.5-.22l.8-1,0-.08h-.31c-2.34,0-4.68,0-7,0a.49.49,0,0,1-.49-.28l-.5-1h8.55c.29,0,.41-.09.43-.36s0-.6.06-.9Z" transform="translate(-1.75 -1.14)"/></svg>