<?xml version="1.0" encoding="UTF-8" standalone="no"?>
<svg
   id="Layer_1"
   data-name="Layer 1"
   viewBox="0 0 487.57 507.95"
   version="1.1"
   sodipodi:docname="kb-moveto.svg"
   inkscape:version="1.2.1 (9c6d41e410, 2022-07-14)"
   xmlns:inkscape="http://www.inkscape.org/namespaces/inkscape"
   xmlns:sodipodi="http://sodipodi.sourceforge.net/DTD/sodipodi-0.dtd"
   xmlns="http://www.w3.org/2000/svg"
   xmlns:svg="http://www.w3.org/2000/svg">
  <sodipodi:namedview
     id="namedview35"
     pagecolor="#ffffff"
     bordercolor="#000000"
     borderopacity="0.25"
     inkscape:showpageshadow="2"
     inkscape:pageopacity="0.0"
     inkscape:pagecheckerboard="0"
     inkscape:deskcolor="#d1d1d1"
     showgrid="false"
     inkscape:zoom="1.314123"
     inkscape:cx="325.6925"
     inkscape:cy="294.49298"
     inkscape:window-width="1236"
     inkscape:window-height="836"
     inkscape:window-x="1307"
     inkscape:window-y="1382"
     inkscape:window-maximized="0"
     inkscape:current-layer="Layer_1" />
  <defs
     id="defs24">
    <style
       id="style22">.cls-1{fill:#e6e7e8;}.cls-2{fill:#231f20;}.cls-3{fill:none;stroke:#231f20;stroke-miterlimit:10;stroke-width:39px;}</style>
  </defs>
  <path
     class="cls-1"
     d="M210.3,511.65l196.6-.91-.92-174s96.53-91.95,81.83-179S383.94,25.75,320.55,10.34,186.67,5.81,135.23,48.41,92,189.84,92,189.84L1.76,337.6h99.93c.32,0,.61,72.52.61,72.52S93.78,457,115.09,457.26s92.46,3.62,92.46,3.62Z"
     transform="translate(-1.76 -3.7)"
     id="path26"
     style="fill:#cccccc" />
  <polyline
     class="st0"
     points="9.9,16 9.9,4.9 14.4,4.9 7.5,0 1.5,4.9 5.9,4.9 6,16 "
     id="polyline24"
     transform="matrix(0,-20.835932,20.838939,0,119.12318,352.46578)"
     style="fill:#2b2200" />
</svg>
