<?xml version="1.0" encoding="UTF-8"?>
<svg id="Layer_1" data-name="Layer 1" xmlns="http://www.w3.org/2000/svg" viewBox="0 0 487.57 507.95">
  <defs>
    <style>
      .cls-1 {
        fill: #8dc63f;
      }
    </style>
  </defs>
  <path class="cls-1" d="M486.05,154.02C471.35,66.99,382.17,22.06,318.78,6.64S184.91,2.11,133.46,44.72s-43.27,141.43-43.27,141.43L0,333.9H99.93c.32,0,.61,72.52,.61,72.52,0,0-8.52,46.89,12.79,47.14,21.31,.25,92.46,3.63,92.46,3.63l2.76,50.77,196.6-.91-.92-174.05s96.52-91.95,81.83-178.98ZM157.34,245.24c-16.38,0-29.66-13.28-29.66-29.66s13.28-29.66,29.66-29.66,29.66,13.28,29.66,29.66-13.28,29.66-29.66,29.66Z"/>
</svg>