<?xml version="1.0" encoding="UTF-8"?>
<svg xmlns="http://www.w3.org/2000/svg" version="1.1" xmlns:inkscape="http://www.inkscape.org/namespaces/inkscape" xmlns:sodipodi="http://sodipodi.sourceforge.net/DTD/sodipodi-0.dtd" xmlns:svg="http://www.w3.org/2000/svg" viewBox="0 0 487.57 507.95">
  <!-- Generator: Adobe Illustrator 29.6.1, SVG Export Plug-In . SVG Version: 2.1.1 Build 9)  -->
  <defs>
    <style>
      .st0 {
        fill: #8dc63f;
      }

      .st1 {
        fill: #4759d6;
      }
    </style>
  </defs>
  <g id="Layer_1" inkscape:version="1.2.1 (9c6d41e410, 2022-07-14)">
    <sodipodi:namedview id="namedview18" bordercolor="#000000" borderopacity="0.25" inkscape:current-layer="Layer_1" inkscape:cx="538.00138" inkscape:cy="255.30334" inkscape:deskcolor="#d1d1d1" inkscape:pagecheckerboard="0" inkscape:pageopacity="0.0" inkscape:showpageshadow="2" inkscape:window-height="1111" inkscape:window-maximized="1" inkscape:window-width="1920" inkscape:window-x="1266" inkscape:window-y="1341" inkscape:zoom="1.314123" pagecolor="#ffffff" showgrid="false"/>
    <path id="path15" class="st0" d="M486.05,154.02c-14.7-87.03-103.88-131.96-167.27-147.38S184.91,2.11,133.46,44.72c-51.45,42.61-43.27,141.43-43.27,141.43L0,333.9h99.93c.32,0,.61,72.52.61,72.52,0,0-8.52,46.89,12.79,47.14s92.46,3.63,92.46,3.63l2.76,50.77,196.6-.91-.92-174.05s96.52-91.95,81.83-178.98h-.01ZM157.34,245.24c-16.38,0-29.66-13.28-29.66-29.66s13.28-29.66,29.66-29.66,29.66,13.28,29.66,29.66-13.28,29.66-29.66,29.66Z"/>
    <path id="path225" class="st0" d="M486.05,154.02c-14.7-87.03-103.88-131.96-167.27-147.38S184.91,2.11,133.46,44.72c-51.45,42.61-43.27,141.43-43.27,141.43L0,333.9h99.93c.32,0,.61,72.52.61,72.52,0,0-8.52,46.89,12.79,47.14s92.46,3.63,92.46,3.63l2.76,50.77,196.6-.91-.92-174.05s96.52-91.95,81.83-178.98h-.01ZM157.34,245.24c-16.38,0-29.66-13.28-29.66-29.66s13.28-29.66,29.66-29.66,29.66,13.28,29.66,29.66-13.28,29.66-29.66,29.66Z"/>
    <path id="path227" class="st0" d="M486.05,154.02c-14.7-87.03-103.88-131.96-167.27-147.38S184.91,2.11,133.46,44.72c-51.45,42.61-43.27,141.43-43.27,141.43L0,333.9h99.93c.32,0,.61,72.52.61,72.52,0,0-8.52,46.89,12.79,47.14s92.46,3.63,92.46,3.63l2.76,50.77,196.6-.91-.92-174.05s96.52-91.95,81.83-178.98h-.01ZM157.34,245.24c-16.38,0-29.66-13.28-29.66-29.66s13.28-29.66,29.66-29.66,29.66,13.28,29.66,29.66-13.28,29.66-29.66,29.66Z"/>
    <path id="path229" class="st0" d="M486.05,154.02c-14.7-87.03-103.88-131.96-167.27-147.38S184.91,2.11,133.46,44.72c-51.45,42.61-43.27,141.43-43.27,141.43L0,333.9h99.93c.32,0,.61,72.52.61,72.52,0,0-8.52,46.89,12.79,47.14s92.46,3.63,92.46,3.63l2.76,50.77,196.6-.91-.92-174.05s96.52-91.95,81.83-178.98h-.01ZM157.34,245.24c-16.38,0-29.66-13.28-29.66-29.66s13.28-29.66,29.66-29.66,29.66,13.28,29.66,29.66-13.28,29.66-29.66,29.66Z"/>
    <path id="path231" class="st0" d="M486.05,154.02c-14.7-87.03-103.88-131.96-167.27-147.38S184.91,2.11,133.46,44.72c-51.45,42.61-43.27,141.43-43.27,141.43L0,333.9h99.93c.32,0,.61,72.52.61,72.52,0,0-8.52,46.89,12.79,47.14s92.46,3.63,92.46,3.63l2.76,50.77,196.6-.91-.92-174.05s96.52-91.95,81.83-178.98h-.01ZM157.34,245.24c-16.38,0-29.66-13.28-29.66-29.66s13.28-29.66,29.66-29.66,29.66,13.28,29.66,29.66-13.28,29.66-29.66,29.66Z"/>
    <path id="path233" class="st0" d="M486.05,154.02c-14.7-87.03-103.88-131.96-167.27-147.38S184.91,2.11,133.46,44.72c-51.45,42.61-43.27,141.43-43.27,141.43L0,333.9h99.93c.32,0,.61,72.52.61,72.52,0,0-8.52,46.89,12.79,47.14s92.46,3.63,92.46,3.63l2.76,50.77,196.6-.91-.92-174.05s96.52-91.95,81.83-178.98h-.01ZM157.34,245.24c-16.38,0-29.66-13.28-29.66-29.66s13.28-29.66,29.66-29.66,29.66,13.28,29.66,29.66-13.28,29.66-29.66,29.66Z"/>
    <path id="path235" class="st1" d="M486.05,154.02c-14.7-87.03-103.88-131.96-167.27-147.38S184.91,2.11,133.46,44.72c-51.45,42.61-43.27,141.43-43.27,141.43L0,333.9h99.93c.32,0,.61,72.52.61,72.52,0,0-8.52,46.89,12.79,47.14s92.46,3.63,92.46,3.63l2.76,50.77,196.6-.91-.92-174.05s96.52-91.95,81.83-178.98h-.01ZM157.34,245.24c-16.38,0-29.66-13.28-29.66-29.66s13.28-29.66,29.66-29.66,29.66,13.28,29.66,29.66-13.28,29.66-29.66,29.66Z"/>
  </g>
</svg>