<svg id="Layer_1" data-name="Layer 1" xmlns="http://www.w3.org/2000/svg" viewBox="0 0 16 16"><defs><style>.cls-1{fill:#505625;}</style></defs><path class="cls-1" d="M2.2,7.75c-.12-.29-.24-.61-.37-1L1.75,9.34l0,2.15-.73,0-.79,0,.08-1.13L.42,6.53.46,5V4.15h2L4.08,8.32l.23.61c0-.6.05-1.44.08-2.53s.05-1.84.05-2.25H6l-.09,1.6L5.68,10.2l0,1.29-.93,0-1,0c-.13-.36-.23-.61-.29-.77L2.78,9.19C2.57,8.69,2.37,8.21,2.2,7.75Zm8.51,3.74.09-1.63c-.35,0-.86,0-1.53,0l-.87,0,0-.74.11-3.05.1-1.94H6.92c0,.61,0,1.4,0,2.36s-.07,1.93-.13,2.91c0,.53-.07,1.22-.13,2.07l2.16,0Zm5-5.94A2.4,2.4,0,0,0,15.55,5a1.74,1.74,0,0,0-.33-.46,1.24,1.24,0,0,0-.45-.29A2.44,2.44,0,0,0,14,4.12c-.23,0-.53,0-.87,0l-.81,0-.82,0c0,.35,0,.6,0,.76s0,.41,0,.61l0,1.9-.1,2.69-.07,1.38.8,0,.76,0v-.7c0-.31,0-1.24.05-2.78,0-.84,0-1.61.08-2.3l.32,0,.29,0a1,1,0,0,1,.25,0,.45.45,0,0,1,.21.12.58.58,0,0,1,.13.23,1.15,1.15,0,0,1,0,.33A1.05,1.05,0,0,1,14,7a.67.67,0,0,1-.58.26,1.34,1.34,0,0,1-.35,0c0,.16.08.4.14.72s.09.57.11.74a2.41,2.41,0,0,0,.49.06,1.83,1.83,0,0,0,1-.29,2,2,0,0,0,.7-.89,3.34,3.34,0,0,0,.25-1.32A3.23,3.23,0,0,0,15.74,5.55Z"/></svg>