<?xml version="1.0" encoding="utf-8"?>
<!-- Generator: Adobe Illustrator 25.0.0, SVG Export Plug-In . SVG Version: 6.00 Build 0)  -->
<svg version="1.1" id="Layer_1" xmlns="http://www.w3.org/2000/svg" xmlns:xlink="http://www.w3.org/1999/xlink" x="0px" y="0px"
	 viewBox="0 0 12.5 13.7" style="enable-background:new 0 0 12.5 13.7;" xml:space="preserve">
<style type="text/css">
	.st0{fill:#EDEC81;}
</style>
<path class="st0" d="M1.3,0c0,1.1,0.4,2.3,1.1,3.1c0.8,0.9,1.8,1.7,2.9,2.4C6.5,6.3,7.8,7.1,9.1,8c0.8,0.6,1.6,1.3,2.2,2.1
	c0.7,0.9,1.1,2.1,1.2,3.3c0,0.1,0,0.3,0,0.4h-1.2l-0.1-0.9c0-0.3-0.1-0.4-0.4-0.4H2.2l0.5-1c0.1-0.2,0.3-0.3,0.4-0.2h7.5l-0.9-1
	C9.7,10.1,9.5,10,9.3,10H4.1V9.9c0.5-0.3,1-0.7,1.4-1C5.7,8.8,5.9,8.8,6,8.8h1.7H8c-0.6-0.4-1.1-0.7-1.6-1C6.3,7.7,6.2,7.7,6.1,7.7
	C5.4,8.1,4.8,8.5,4.2,8.9c-0.8,0.5-1.4,1.2-2,1.9c-0.7,0.8-1,1.9-1,2.9H0c0.1-0.7,0.2-1.3,0.4-2C0.9,10.3,1.8,9.1,3,8.3
	c0.7-0.5,1.3-1,2-1.4C4.9,6.8,4.8,6.7,4.7,6.7C3.8,6,2.9,5.4,2.1,4.7C0.8,3.5,0,1.8,0,0H1.3z"/>
<path class="st0" d="M12.5,0c0,1.2-0.4,2.4-1.1,3.4c-0.6,0.8-1.2,1.5-2,2.1C9,5.8,8.6,6.1,8.2,6.4c-0.1,0.1-0.3,0.1-0.4,0
	C7.5,6.2,7.2,6,6.9,5.8L8,5.1V5C7.4,5,6.8,5,6.3,5c-0.4,0-0.7-0.1-1-0.3C4.9,4.4,4.5,4.1,4.1,3.8V3.7h5.2c0.2,0,0.4-0.1,0.5-0.2
	c0.3-0.3,0.5-0.6,0.8-1V2.4H3.2C3,2.5,2.8,2.4,2.7,2.2l-0.5-1h8.6c0.3,0,0.4-0.1,0.4-0.4s0-0.6,0.1-0.9L12.5,0z"/>
</svg>
